<?xml version="1.0" encoding="utf-8"?>
<!-- Generator: Adobe Illustrator 19.0.0, SVG Export Plug-In . SVG Version: 6.00 Build 0)  -->
<svg version="1.1" id="Capa_1" xmlns="http://www.w3.org/2000/svg" xmlns:xlink="http://www.w3.org/1999/xlink" x="0px" y="0px"
	 viewBox="-703 285 512 512" style="enable-background:new -703 285 512 512;" xml:space="preserve">
<style type="text/css">
	.st0{fill:#C0694E;}
	.st1{fill:#954C35;}
	.st2{fill:#5A5555;}
	.st3{fill:#736E6E;}
	.st4{fill:#F77026;}
	.st5{fill:#F9935C;}
	.st6{fill:#FFF5F5;}
	.st7{fill:#EBE1DC;}
	.st8{fill:#54E360;}
	.st9{fill:#1FBF66;}
	.st10{fill:#E7F0EF;}
	.st11{fill:#C5E1E6;}
</style>
<g>
	<path class="st0" d="M-421.5,599.3v166c0,4.6-3.7,8.3-8.3,8.3h-34.4c-4.6,0-8.3-3.7-8.3-8.3v-166H-421.5z"/>
	<path class="st0" d="M-502.1,599.3l-13.3,50.2l-31.3,117.9c-1,3.7-4.3,6.2-8.1,6.2h-35.6c-5.5,0-9.4-5.2-8-10.5l30.2-113.6
		l13.3-50.2L-502.1,599.3L-502.1,599.3z"/>
	<path class="st0" d="M-303.6,773.6h-35.6c-3.8,0-7.1-2.5-8.1-6.2l-31.3-117.9l-13.3-50.2h52.8l13.3,50.2l30.2,113.6
		C-294.2,768.5-298.2,773.6-303.6,773.6z"/>
</g>
<g>
	<polygon class="st1" points="-554.9,599.3 -502.1,599.3 -515.4,649.6 -568.2,649.6 	"/>
	<rect x="-472.5" y="599.3" class="st1" width="51" height="50.2"/>
	<polygon class="st1" points="-325.8,649.6 -378.6,649.6 -391.9,599.3 -339.1,599.3 	"/>
	<path class="st1" d="M-191,328v265.7c0,4.8-1.7,9.1-4.5,12.6c-3.6,4.3-9,7.1-15.1,7.1h-472.7c-6.2,0-11.8-2.9-15.4-7.4
		c-2.7-3.4-4.3-7.6-4.3-12.2V328c0-4.6,1.6-8.8,4.1-12.1c3.6-4.6,9.2-7.6,15.5-7.6h472.7c6.3,0,11.9,3,15.5,7.6
		C-192.5,319.3-191,323.4-191,328z"/>
</g>
<path class="st2" d="M-222.3,351.5v218.8c0,6.5-5.3,11.9-11.8,11.9h-425.8c-6.5,0-11.8-5.3-11.8-11.9V351.5
	c0-6.5,5.3-11.8,11.8-11.8h425.8C-227.6,339.6-222.3,344.9-222.3,351.5z"/>
<path class="st3" d="M-222.3,351.5v211.4h-402c-6.6,0-11.9-5.3-11.9-11.9V339.6h402C-227.6,339.6-222.3,344.9-222.3,351.5z"/>
<g>
	<path class="st0" d="M-195.1,315.9L-195.1,315.9l-30.8,27c-2.1-2-5-3.3-8.2-3.3h-425.8c-3.2,0-6.1,1.3-8.2,3.3l-30.7-27l0,0
		c3.6-4.6,9.2-7.6,15.5-7.6h472.7C-204.3,308.4-198.7,311.3-195.1,315.9z"/>
	<path class="st0" d="M-195.5,606.3c-3.6,4.3-9,7.1-15.1,7.1h-472.7c-6.2,0-11.8-2.9-15.4-7.4l8.2-7.2l22.6-19.8
		c2.1,2,4.9,3.2,8,3.2h425.8c3.1,0,5.9-1.2,8-3.1l26.8,23.5L-195.5,606.3z"/>
</g>
<path class="st4" d="M-256.4,551.1v31h-99v-31c0-8.3,6.8-15.1,15.1-15.1h68.8C-263.1,536-256.4,542.7-256.4,551.1z"/>
<path class="st5" d="M-256.4,551.1v20.6h-68.2c-6.1,0-11-4.9-11-11v-20c0-1.6,0.3-3.2,0.7-4.7h63.3
	C-263.1,536-256.4,542.7-256.4,551.1z"/>
<g>
	<path class="st6" d="M-396.6,582.1c-1.6,0-3.2-0.5-4.6-1.5c-3.5-2.5-4.2-7.4-1.7-10.9l44.1-60.4c2.5-3.5,7.4-4.2,10.9-1.7
		c3.5,2.5,4.2,7.4,1.7,10.9l-44.1,60.4C-391.9,581-394.2,582.1-396.6,582.1z"/>
	<path class="st6" d="M-458.6,581.8c-2.9,0-5.7-1.6-7-4.4c-1.9-3.9-0.2-8.6,3.6-10.4l67.3-32.5c3.9-1.9,8.6-0.2,10.4,3.6
		s0.2,8.6-3.6,10.4l-67.3,32.5C-456.3,581.6-457.5,581.8-458.6,581.8z"/>
</g>
<g>
	<path class="st7" d="M-378.6,562.8l-11.7,16c-1.5,2.1-3.9,3.2-6.3,3.2c-1.6,0-3.2-0.5-4.6-1.5c-3.5-2.6-4.3-7.4-1.7-10.9l5-6.8
		H-378.6z"/>
	<path class="st7" d="M-453.4,562.8h36l-37.8,18.2c-1.1,0.5-2.3,0.8-3.4,0.8c-2.9,0-5.7-1.6-7-4.4c-1.9-3.9-0.2-8.6,3.6-10.4
		L-453.4,562.8z"/>
</g>
<path class="st8" d="M-215.5,692.9c-12.2-11.5-28.4-17.9-45.7-17.9c-17.3,0-33.5,6.3-45.7,17.9c-12.2,11.5-18.9,26.8-18.9,43.1
	c0,16.3,6.7,31.6,18.9,43.1c12.2,11.5,28.4,17.9,45.7,17.9c17.3,0,33.5-6.3,45.7-17.9c12.2-11.5,18.9-26.8,18.9-43.1
	C-196.5,719.7-203.3,704.4-215.5,692.9z"/>
<path class="st9" d="M-215.5,692.9c-12.2-11.5-28.4-17.9-45.7-17.9v122c17.3,0,33.5-6.3,45.7-17.9c12.2-11.5,18.9-26.8,18.9-43.1
	C-196.5,719.7-203.3,704.4-215.5,692.9z"/>
<path class="st10" d="M-228.7,724.8h-20.5v-19.4c0-2-1.7-3.6-3.8-3.6h-16.2c-2.1,0-3.8,1.6-3.8,3.6v19.4h-20.5
	c-2.1,0-3.8,1.6-3.8,3.6v15.3c0,2,1.7,3.6,3.8,3.6h20.5v19.4c0,2,1.7,3.6,3.8,3.6h16.2c2.1,0,3.8-1.6,3.8-3.6v-19.4h20.5
	c2.1,0,3.8-1.6,3.8-3.6v-15.3C-224.9,726.4-226.6,724.8-228.7,724.8z"/>
<path class="st11" d="M-228.7,724.8h-20.5v-19.4c0-2-1.7-3.6-3.8-3.6h-8.1v68.4h8.1c2.1,0,3.8-1.6,3.8-3.6v-19.4h20.5
	c2.1,0,3.8-1.6,3.8-3.6v-15.3C-224.9,726.4-226.6,724.8-228.7,724.8z"/>
</svg>
