<?xml version="1.0" encoding="utf-8"?>
<!-- Generator: Adobe Illustrator 19.0.0, SVG Export Plug-In . SVG Version: 6.00 Build 0)  -->
<svg version="1.1" id="Capa_1" xmlns="http://www.w3.org/2000/svg" xmlns:xlink="http://www.w3.org/1999/xlink" x="0px" y="0px"
	 viewBox="-267 69.7 423.3 423.3" style="enable-background:new -267 69.7 423.3 423.3;" xml:space="preserve">
<style type="text/css">
	.st0{fill:#FBAD4A;}
	.st1{fill:#777777;}
</style>
<rect x="-260.2" y="158.5" class="st0" width="409.6" height="218.5"/>
<path d="M149.4,383.8h-409.6c-3.8,0-6.8-3.1-6.8-6.8V158.5c0-3.8,3.1-6.8,6.8-6.8h409.6c3.8,0,6.8,3.1,6.8,6.8v218.5
	C156.3,380.7,153.2,383.8,149.4,383.8z M-253.3,370.1h395.9V165.3h-395.9V370.1z"/>
<path class="st1" d="M136.2,124.4h-383.1c-7.3,0-13.2,5.9-13.2,13.2v20.9h409.6v-20.9C149.4,130.3,143.5,124.4,136.2,124.4z"/>
<path d="M149.4,165.3h-409.6c-3.8,0-6.8-3.1-6.8-6.8v-20.9c0-11.1,9-20.1,20.1-20.1h383.1c11.1,0,20.1,9,20.1,20.1v20.9
	C156.3,162.3,153.2,165.3,149.4,165.3z M-253.3,151.7h395.9v-14.1c0-3.5-2.9-6.4-6.4-6.4h-383.1c-3.5,0-6.4,2.9-6.4,6.4V151.7z"/>
<path class="st1" d="M136.2,411.1h-383.1c-7.3,0-13.2-5.9-13.2-13.2v-20.9h409.6v20.9C149.4,405.2,143.5,411.1,136.2,411.1z"/>
<path d="M136.2,417.9h-383.1c-11.1,0-20.1-9-20.1-20.1v-20.9c0-3.8,3.1-6.8,6.8-6.8h409.6c3.8,0,6.8,3.1,6.8,6.8v20.9
	C156.3,408.9,147.3,417.9,136.2,417.9z M-253.3,383.8v14.1c0,3.5,2.9,6.4,6.4,6.4h383.1c3.5,0,6.4-2.9,6.4-6.4v-14.1H-253.3z"/>
<rect x="-103.2" y="411.1" class="st1" width="95.6" height="27.3"/>
<path d="M-7.6,445.2h-95.6c-3.8,0-6.8-3.1-6.8-6.8v-27.3c0-3.8,3.1-6.8,6.8-6.8h95.6c3.8,0,6.8,3.1,6.8,6.8v27.3
	C-0.8,442.2-3.8,445.2-7.6,445.2z M-96.3,431.6h81.9v-13.7h-81.9V431.6z"/>
<path d="M26.5,445.2h-163.8c-3.8,0-6.8-3.1-6.8-6.8s3.1-6.8,6.8-6.8H26.5c3.8,0,6.8,3.1,6.8,6.8S30.3,445.2,26.5,445.2z"/>
<path d="M-239.7,206.3c-1.7,0-3.5-0.7-4.8-2c-2.7-2.7-2.7-7,0-9.7l20.5-20.5c2.7-2.7,7-2.7,9.7,0s2.7,7,0,9.7l-20.5,20.5
	C-236.2,205.6-237.9,206.3-239.7,206.3z"/>
<path d="M-236.3,230.2c-1.7,0-3.5-0.7-4.8-2c-2.7-2.7-2.7-7,0-9.7l44.4-44.4c2.7-2.7,7-2.7,9.7,0c2.7,2.7,2.7,7,0,9.7l-44.4,44.4
	C-232.8,229.5-234.5,230.2-236.3,230.2z"/>
</svg>
